<svg xmlns="http://www.w3.org/2000/svg" width="59" height="50" viewBox="0 0 59 50" fill="none">
  <path d="M36.8677 35.1381C38.035 35.1381 39.1761 34.7942 40.1467 34.15C41.1172 33.5058 41.8737 32.5901 42.3204 31.5188C42.7671 30.4475 42.884 29.2687 42.6562 28.1314C42.4285 26.9942 41.8664 25.9495 41.041 25.1296C40.2156 24.3096 39.164 23.7513 38.0191 23.525C36.8743 23.2988 35.6876 23.4149 34.6091 23.8587C33.5307 24.3024 32.6089 25.0539 31.9604 26.018C31.3119 26.9821 30.9658 28.1157 30.9658 29.2752L25.3589 31.8256C24.3954 31.1948 23.2668 30.8585 22.1129 30.8582C20.5476 30.8582 19.0464 31.4759 17.9396 32.5754C16.8327 33.6749 16.2109 35.1661 16.2109 36.721C16.2109 38.276 16.8327 39.7672 17.9396 40.8667C19.0464 41.9662 20.5476 42.5839 22.1129 42.5839C23.0636 42.5843 23.9984 42.342 24.8278 41.8803L31.0248 44.8117C31.1742 46.0929 31.7446 47.2893 32.6478 48.2158C33.551 49.1422 34.7365 49.747 36.0207 49.9364C37.3049 50.1258 38.6162 49.8893 39.7514 49.2635C40.8866 48.6377 41.7824 47.6576 42.3 46.4748C42.8177 45.2921 42.9283 43.9728 42.6148 42.7213C42.3013 41.4698 41.581 40.3559 40.5657 39.5521C39.5504 38.7484 38.2966 38.2996 36.9986 38.2754C35.7005 38.2511 34.4306 38.6527 33.3856 39.4179L28.2214 37.0728L33.8577 34.4932C34.7859 34.9689 35.8246 35.1915 36.8677 35.1381ZM48.4355 12.3316C46.6325 8.21593 43.5206 4.80104 39.5769 2.61025C35.6332 0.419451 31.0751 -0.426393 26.6012 0.202329C22.1272 0.831051 17.9842 2.89965 14.807 6.09115C11.6298 9.28265 9.59363 13.421 9.01055 17.872C6.53828 18.4702 4.32677 19.8459 2.70565 21.7942C1.08452 23.7425 0.140579 26.1591 0.0145036 28.6836C-0.111572 31.2082 0.586972 33.7057 2.00602 35.8038C3.42507 37.9019 5.48864 39.4884 7.88918 40.3267C8.19523 40.4203 8.51327 40.4697 8.83349 40.4732C9.61614 40.5976 10.4165 40.4081 11.0584 39.9463C11.7004 39.4845 12.1314 38.7883 12.2566 38.0109C12.3818 37.2334 12.191 36.4384 11.7262 35.8007C11.2613 35.1629 10.5604 34.7348 9.7778 34.6104C8.66502 34.2114 7.69864 33.4894 7.00405 32.538C6.30946 31.5867 5.91872 30.4499 5.88252 29.2752C5.88252 27.7203 6.50433 26.2291 7.61116 25.1296C8.71799 24.0301 10.2192 23.4124 11.7845 23.4124C12.5671 23.4124 13.3177 23.1035 13.8711 22.5538C14.4245 22.004 14.7354 21.2584 14.7354 20.481C14.743 17.0139 15.9875 13.6618 18.2479 11.0201C20.5083 8.37836 23.6382 6.61815 27.0816 6.05216C30.5249 5.48617 34.0588 6.15105 37.0553 7.92866C40.0518 9.70628 42.317 12.4815 43.4484 15.7614C43.6171 16.2651 43.9203 16.7139 44.3257 17.0598C44.7311 17.4057 45.2234 17.6358 45.7501 17.7254C47.5247 18.0445 49.1588 18.8943 50.4339 20.1611C51.7089 21.4279 52.5641 23.0514 52.885 24.8142C53.2059 26.577 52.9772 28.3952 52.2295 30.0253C51.4818 31.6555 50.2508 33.02 48.7011 33.9362C48.0202 34.3249 47.5226 34.9664 47.3179 35.7196C47.1131 36.4727 47.2179 37.2758 47.6092 37.9522C48.0006 38.6286 48.6464 39.1229 49.4045 39.3263C50.1627 39.5297 50.9712 39.4256 51.6521 39.0368C53.8896 37.7467 55.7462 35.8949 57.0359 33.6671C58.3256 31.4393 59.0029 28.9137 59 26.3438C58.991 23.19 57.9582 20.1232 56.055 17.5988C54.1518 15.0745 51.4797 13.2273 48.4355 12.3316Z" fill="#F87273"/>
</svg>