<svg xmlns="http://www.w3.org/2000/svg" width="42" height="53" viewBox="0 0 42 53" fill="none">
  <path d="M34.6875 15H22.5V32.973L28.6746 26.7996C29.0291 26.4628 29.5011 26.2778 29.9901 26.2841C30.479 26.2904 30.9461 26.4874 31.2919 26.8331C31.6376 27.1789 31.8346 27.646 31.8409 28.1349C31.8472 28.6239 31.6622 29.0959 31.3254 29.4504L21.9504 38.8254C21.5988 39.1768 21.1221 39.3741 20.625 39.3741C20.1279 39.3741 19.6512 39.1768 19.2996 38.8254L9.92461 29.4504C9.58782 29.0959 9.40284 28.6239 9.4091 28.1349C9.41536 27.646 9.61237 27.1789 9.95812 26.8331C10.3039 26.4874 10.771 26.2904 11.2599 26.2841C11.7489 26.2778 12.2209 26.4628 12.5754 26.7996L18.75 32.973V15H6.5625C4.82259 15.0019 3.15447 15.6939 1.92417 16.9242C0.693863 18.1545 0.0018612 19.8226 0 21.5625V45.9375C0.0018612 47.6774 0.693863 49.3455 1.92417 50.5758C3.15447 51.8061 4.82259 52.4981 6.5625 52.5H34.6875C36.4274 52.4981 38.0955 51.8061 39.3258 50.5758C40.5561 49.3455 41.2481 47.6774 41.25 45.9375V21.5625C41.2481 19.8226 40.5561 18.1545 39.3258 16.9242C38.0955 15.6939 36.4274 15.0019 34.6875 15ZM22.5 1.875C22.5 1.37772 22.3025 0.900805 21.9508 0.549175C21.5992 0.197544 21.1223 0 20.625 0C20.1277 0 19.6508 0.197544 19.2992 0.549175C18.9475 0.900805 18.75 1.37772 18.75 1.875V15H22.5V1.875Z" fill="#F87273"/>
</svg>