<svg xmlns="http://www.w3.org/2000/svg" width="54" height="48" viewBox="0 0 54 48" fill="none">
  <path d="M3.66665 44.4167L0.954147 43.3376C0.760332 43.8252 0.701675 44.3562 0.784358 44.8744C0.867041 45.3926 1.088 45.8789 1.42395 46.282C1.75989 46.6852 2.19838 46.9902 2.69318 47.165C3.18799 47.3397 3.72078 47.3778 4.2354 47.2751L3.66665 44.4167ZM17.3925 41.6867L18.775 39.1172L17.8504 38.6213L16.8237 38.8255L17.3925 41.6867ZM8.40331 32.508L11.1158 33.5872L11.5912 32.3797L11.0196 31.2159L8.40331 32.508ZM47.4167 24.0001C47.4167 33.4676 39.0954 41.5001 28.3708 41.5001V47.3334C41.9071 47.3334 53.25 37.0842 53.25 24.0001H47.4167ZM9.3279 24.0001C9.3279 14.5326 17.6521 6.50008 28.3737 6.50008V0.666748C14.8375 0.666748 3.49165 10.9159 3.49165 24.0001H9.3279ZM28.3737 6.50008C39.0954 6.50008 47.4167 14.5326 47.4167 24.0001H53.25C53.25 10.9159 41.91 0.666748 28.3737 0.666748V6.50008ZM28.3708 41.5001C24.8562 41.5001 21.5837 40.6251 18.775 39.1172L16.01 44.2534C19.8129 46.2874 24.0582 47.3457 28.3708 47.3334V41.5001ZM4.2354 47.2751L17.9612 44.5451L16.8237 38.8255L3.0979 41.5555L4.2354 47.278V47.2751ZM11.0196 31.2159C9.90562 28.9736 9.32855 26.5039 9.3279 24.0001H3.49165C3.49165 27.5001 4.31415 30.8192 5.78415 33.8001L11.0196 31.2159ZM5.69373 31.4288L0.954147 43.3405L6.37331 45.493L11.11 33.5842L5.69081 31.4288H5.69373Z" fill="#F87273"/>
  <path d="M18.25 26.9168C19.8609 26.9168 21.1667 25.6109 21.1667 24.0001C21.1667 22.3893 19.8609 21.0834 18.25 21.0834C16.6392 21.0834 15.3334 22.3893 15.3334 24.0001C15.3334 25.6109 16.6392 26.9168 18.25 26.9168Z" fill="#F87273"/>
  <path d="M28.4583 26.9168C30.0691 26.9168 31.375 25.6109 31.375 24.0001C31.375 22.3893 30.0691 21.0834 28.4583 21.0834C26.8475 21.0834 25.5416 22.3893 25.5416 24.0001C25.5416 25.6109 26.8475 26.9168 28.4583 26.9168Z" fill="#F87273"/>
  <path d="M38.6667 26.9168C40.2775 26.9168 41.5833 25.6109 41.5833 24.0001C41.5833 22.3893 40.2775 21.0834 38.6667 21.0834C37.0558 21.0834 35.75 22.3893 35.75 24.0001C35.75 25.6109 37.0558 26.9168 38.6667 26.9168Z" fill="#F87273"/>
</svg>